<svg width="64" height="22" viewBox="0 0 64 22" fill="none" xmlns="http://www.w3.org/2000/svg">
<rect width="64" height="22" fill="#F5F5F5"/>
<g id="&#233;&#187;&#152;&#232;&#174;&#164;-&#231;&#153;&#187;&#229;&#189;&#149;" clip-path="url(#clip0_119_7109)">
<rect width="1440" height="754" transform="translate(-944 -494.333)" fill="white"/>
<g id="Container" filter="url(#filter0_d_119_7109)">
<rect width="560" height="754" transform="translate(-64 -494.333)" fill="white"/>
<g id="Frame 1321315824">
<g id="Frame 1321315822">
<g id="Frame 1321315826">
<g id="Frame 1321315823">
<g id="checkbox">
<g id=".checkbox-input">
<g id="wrapper">
<rect id="bg" y="4" width="14" height="14" rx="2" fill="#165DFF"/>
<path id="Combined Shape" d="M10.1787 8.48866C10.3626 8.67235 10.3747 8.96606 10.207 9.16469L7.02914 12.9253L7.05538 12.953L6.74049 13.2678L6.46221 13.5972C6.38965 13.6831 6.29457 13.7361 6.19359 13.7595C6.00891 13.836 5.78823 13.7984 5.64116 13.6449L3.79053 11.7114C3.60265 11.5151 3.60545 11.2048 3.79744 11.0126L4.15099 10.659C4.34921 10.4607 4.67172 10.4641 4.86569 10.6666L5.99057 11.8398L9.09176 8.16963C9.28044 7.94631 9.61944 7.93146 9.82649 8.13787L10.1787 8.48866Z" fill="white"/>
</g>
</g>
<path id="label" d="M35.524 13.508C35.398 14.936 35.202 15.874 34.936 16.308C34.67 16.728 34.138 16.952 33.354 16.952H29.728C28.86 16.952 28.426 16.504 28.426 15.608V9.49H33.41V6.228H27.754V5.248H34.376V10.456H29.406V15.244C29.406 15.72 29.644 15.972 30.12 15.986H33.172C33.718 15.986 34.068 15.79 34.222 15.412C34.362 15.034 34.46 14.292 34.53 13.172L35.524 13.508ZM24.268 4.702C25.22 5.416 26.018 6.13 26.662 6.858L25.976 7.558C25.388 6.872 24.576 6.144 23.568 5.388L24.268 4.702ZM22.63 8.846H25.654V15.146C26.2 14.726 26.788 14.222 27.404 13.662L27.656 14.726C26.76 15.538 25.794 16.252 24.786 16.896L24.394 15.986C24.59 15.818 24.688 15.622 24.688 15.398V9.812H22.63V8.846ZM40.55 6.956H44.428C44.19 6.228 43.91 5.514 43.588 4.828L44.596 4.562C44.932 5.374 45.184 6.102 45.366 6.774L44.89 6.956H49.048V7.95H45.352V11.296H48.656V12.262H45.352V15.944H49.342V16.938H40.326V15.944H44.316V12.262H40.984V11.296H44.316V7.95H40.55V6.956ZM39.724 4.492L40.662 4.926C40.298 6.032 39.836 7.068 39.276 8.048V17.428H38.282V9.56C37.834 10.176 37.344 10.75 36.812 11.296L36.49 10.232C37.974 8.566 39.052 6.648 39.724 4.492ZM57.154 11.072V12.094C56.342 12.36 55.502 12.612 54.606 12.85V16C54.606 16.812 54.172 17.218 53.318 17.218H51.764L51.554 16.252C52.044 16.294 52.52 16.322 52.982 16.322C53.374 16.322 53.57 16.126 53.57 15.748V13.088C52.674 13.284 51.764 13.466 50.812 13.62L50.672 12.598C51.694 12.43 52.66 12.262 53.57 12.066V9.308H50.686V8.342H53.57V6.466C52.828 6.62 52.058 6.746 51.26 6.858L51.05 5.892C53.038 5.668 54.802 5.262 56.342 4.66L56.678 5.612C56.034 5.836 55.334 6.046 54.606 6.242V8.342H57.966C57.882 7.208 57.84 5.962 57.84 4.59H58.848C58.862 6.004 58.904 7.25 58.988 8.342H63.314V9.308H59.072C59.17 10.316 59.296 11.156 59.464 11.842C59.548 12.206 59.646 12.528 59.744 12.836C60.416 12.024 61.018 11.1 61.522 10.064L62.39 10.526C61.746 11.842 60.99 12.962 60.108 13.9C60.304 14.376 60.5 14.782 60.724 15.104C61.172 15.776 61.536 16.126 61.802 16.126C62.082 16.112 62.32 15.328 62.544 13.76L63.426 14.222C63.09 16.21 62.6 17.204 61.956 17.204C61.382 17.204 60.78 16.784 60.136 15.944C59.856 15.566 59.59 15.118 59.366 14.614C58.358 15.51 57.21 16.21 55.936 16.714L55.39 15.846C56.762 15.342 57.952 14.6 58.974 13.634C58.806 13.158 58.652 12.64 58.512 12.094C58.316 11.296 58.162 10.372 58.05 9.308H54.606V11.828C55.516 11.59 56.37 11.338 57.154 11.072ZM60.388 4.744C61.396 5.416 62.25 6.074 62.95 6.746L62.222 7.474C61.606 6.83 60.78 6.13 59.716 5.388L60.388 4.744Z" fill="#1D2129"/>
</g>
</g>
</g>
</g>
</g>
</g>
</g>
<defs>
<filter id="filter0_d_119_7109" x="-88.1" y="-516.433" width="604.2" height="798.2" filterUnits="userSpaceOnUse" color-interpolation-filters="sRGB">
<feFlood flood-opacity="0" result="BackgroundImageFix"/>
<feColorMatrix in="SourceAlpha" type="matrix" values="0 0 0 0 0 0 0 0 0 0 0 0 0 0 0 0 0 0 127 0" result="hardAlpha"/>
<feOffset dx="-2"/>
<feGaussianBlur stdDeviation="11.05"/>
<feComposite in2="hardAlpha" operator="out"/>
<feColorMatrix type="matrix" values="0 0 0 0 0 0 0 0 0 0 0 0 0 0 0 0 0 0 0.01 0"/>
<feBlend mode="normal" in2="BackgroundImageFix" result="effect1_dropShadow_119_7109"/>
<feBlend mode="normal" in="SourceGraphic" in2="effect1_dropShadow_119_7109" result="shape"/>
</filter>
<clipPath id="clip0_119_7109">
<rect width="1440" height="754" fill="white" transform="translate(-944 -494.333)"/>
</clipPath>
</defs>
</svg>
