<svg width="44" height="37" viewBox="0 0 44 37" fill="none" xmlns="http://www.w3.org/2000/svg">
<rect width="44" height="37" fill="#F5F5F5"/>
<g id="&#233;&#187;&#152;&#232;&#174;&#164;-&#231;&#153;&#187;&#229;&#189;&#149;" clip-path="url(#clip0_119_7109)">
<rect width="1440" height="754" transform="translate(-944 -157.667)" fill="white"/>
<g id="Container" filter="url(#filter0_d_119_7109)">
<rect width="560" height="754" transform="translate(-64 -157.667)" fill="white"/>
<g id="Frame 1321315824">
<g id="Frame 1321315859">
<g id="Group 2085664117">
<path id="Vector 3439" d="M30.6048 21.717L38.5 18.3333L30.6048 14.9497C27.4163 13.5832 24.8154 11.1308 23.264 8.02801L19.25 0L15.236 8.02801C13.6846 11.1308 11.0837 13.5832 7.89521 14.9497L0 18.3333L7.89521 21.717C11.0837 23.0835 13.6846 25.5359 15.236 28.6387L19.25 36.6667L23.264 28.6387C24.8154 25.5359 27.4163 23.0835 30.6048 21.717Z" fill="#1D2129"/>
<path id="Vector 3440" d="M38.5 36.6667L38.6047 36.4469C39.7207 34.1032 41.6328 32.2319 44 31.1667C41.6328 30.1014 39.7207 28.2301 38.6047 25.8864L38.5 25.6667L38.3954 25.8864C37.2793 28.2301 35.3672 30.1014 33 31.1667C35.3672 32.2319 37.2793 34.1032 38.3954 36.4469L38.5 36.6667Z" fill="#1D2129"/>
</g>
</g>
</g>
</g>
</g>
<defs>
<filter id="filter0_d_119_7109" x="-88.1" y="-179.767" width="604.2" height="798.2" filterUnits="userSpaceOnUse" color-interpolation-filters="sRGB">
<feFlood flood-opacity="0" result="BackgroundImageFix"/>
<feColorMatrix in="SourceAlpha" type="matrix" values="0 0 0 0 0 0 0 0 0 0 0 0 0 0 0 0 0 0 127 0" result="hardAlpha"/>
<feOffset dx="-2"/>
<feGaussianBlur stdDeviation="11.05"/>
<feComposite in2="hardAlpha" operator="out"/>
<feColorMatrix type="matrix" values="0 0 0 0 0 0 0 0 0 0 0 0 0 0 0 0 0 0 0.01 0"/>
<feBlend mode="normal" in2="BackgroundImageFix" result="effect1_dropShadow_119_7109"/>
<feBlend mode="normal" in="SourceGraphic" in2="effect1_dropShadow_119_7109" result="shape"/>
</filter>
<clipPath id="clip0_119_7109">
<rect width="1440" height="754" fill="white" transform="translate(-944 -157.667)"/>
</clipPath>
</defs>
</svg>
