<svg width="16" height="16" viewBox="0 0 16 16" fill="none" xmlns="http://www.w3.org/2000/svg">
<path d="M1.99999 2H14C14.3682 2 14.6667 2.29848 14.6667 2.66667V13.3333C14.6667 13.7015 14.3682 14 14 14H1.99999C1.63181 14 1.33333 13.7015 1.33333 13.3333V2.66667C1.33333 2.29848 1.63181 2 1.99999 2ZM2.66666 3.33333V12.6667H13.3333V3.33333H2.66666ZM11.2667 8.66667C10.9578 10.1881 9.61266 11.3333 8 11.3333C6.15905 11.3333 4.66666 9.84093 4.66666 8C4.66666 6.38736 5.81184 5.04219 7.33333 4.73335V8.66667H11.2667ZM11.2667 7.33333H8.66666V4.73335C9.97273 4.99847 11.0015 6.02725 11.2667 7.33333Z" fill="#165DFF"/>
</svg>
