<svg preserveAspectRatio="none" width="100%" height="100%" overflow="visible" style="display: block;" viewBox="0 0 16 16" fill="none" xmlns="http://www.w3.org/2000/svg">
<g id="Icon / ArrowUpOutlined">
<path id="Vector" d="M13.5619 8.52283L8.37594 2.54627C8.32906 2.49219 8.2711 2.44882 8.206 2.41909C8.1409 2.38937 8.07016 2.37398 7.99859 2.37398C7.92702 2.37398 7.85629 2.38937 7.79119 2.41909C7.72608 2.44882 7.66813 2.49219 7.62125 2.54627L2.43687 8.52283C2.42121 8.54085 2.41105 8.56298 2.40761 8.58661C2.40417 8.61023 2.40759 8.63435 2.41747 8.65608C2.42735 8.67782 2.44327 8.69625 2.46333 8.70919C2.48339 8.72214 2.50675 8.72904 2.53062 8.72908H3.79625C3.86812 8.72908 3.93687 8.69783 3.98531 8.64314L7.40562 4.70096V13.4994C7.40562 13.5681 7.46187 13.6244 7.53062 13.6244H8.46812C8.53687 13.6244 8.59312 13.5681 8.59312 13.4994V4.70096L12.0134 8.64314C12.0603 8.69783 12.1291 8.72908 12.2025 8.72908H13.4681C13.5744 8.72908 13.6322 8.60408 13.5619 8.52283Z" fill="var(--fill-0, white)"/>
</g>
</svg>
