<svg preserveAspectRatio="none" width="100%" height="100%" overflow="visible" style="display: block;" viewBox="0 0 24 24" fill="none" xmlns="http://www.w3.org/2000/svg">
<g id="icon/ellipsis">
<path id="Vector" d="M3 11.9866C3 12.1836 3.0388 12.3786 3.11418 12.5606C3.18956 12.7426 3.30005 12.908 3.43934 13.0473C3.57863 13.1866 3.74399 13.297 3.92597 13.3724C4.10796 13.4478 4.30302 13.4866 4.5 13.4866C4.69698 13.4866 4.89204 13.4478 5.07403 13.3724C5.25601 13.297 5.42137 13.1866 5.56066 13.0473C5.69995 12.908 5.81044 12.7426 5.88582 12.5606C5.9612 12.3786 6 12.1836 6 11.9866C6 11.7896 5.9612 11.5946 5.88582 11.4126C5.81044 11.2306 5.69995 11.0652 5.56066 10.9259C5.42137 10.7867 5.25601 10.6762 5.07403 10.6008C4.89204 10.5254 4.69698 10.4866 4.5 10.4866C4.30302 10.4866 4.10796 10.5254 3.92597 10.6008C3.74399 10.6762 3.57863 10.7867 3.43934 10.9259C3.30005 11.0652 3.18956 11.2306 3.11418 11.4126C3.0388 11.5946 3 11.7896 3 11.9866ZM10.5 11.9866C10.5 12.3844 10.658 12.766 10.9393 13.0473C11.2206 13.3286 11.6022 13.4866 12 13.4866C12.3978 13.4866 12.7794 13.3286 13.0607 13.0473C13.342 12.766 13.5 12.3844 13.5 11.9866C13.5 11.5888 13.342 11.2073 13.0607 10.9259C12.7794 10.6446 12.3978 10.4866 12 10.4866C11.6022 10.4866 11.2206 10.6446 10.9393 10.9259C10.658 11.2073 10.5 11.5888 10.5 11.9866ZM18 11.9866C18 12.3844 18.158 12.766 18.4393 13.0473C18.7206 13.3286 19.1022 13.4866 19.5 13.4866C19.8978 13.4866 20.2794 13.3286 20.5607 13.0473C20.842 12.766 21 12.3844 21 11.9866C21 11.5888 20.842 11.2073 20.5607 10.9259C20.2794 10.6446 19.8978 10.4866 19.5 10.4866C19.1022 10.4866 18.7206 10.6446 18.4393 10.9259C18.158 11.2073 18 11.5888 18 11.9866Z" fill="var(--fill-0, #4E5969)"/>
</g>
</svg>
