<svg preserveAspectRatio="none" width="100%" height="100%" overflow="visible" style="display: block;" viewBox="0 0 16 16" fill="none" xmlns="http://www.w3.org/2000/svg">
<g id="refresh-line">
<path id="Vector" d="M3.64171 2.95508C4.81037 1.94459 6.3338 1.33333 8 1.33333C11.6819 1.33333 14.6667 4.3181 14.6667 8C14.6667 9.42407 14.2201 10.7439 13.4595 11.8271L11.3333 8H13.3333C13.3333 5.05448 10.9455 2.66667 8 2.66667C6.56655 2.66667 5.26518 3.23218 4.30682 4.15228L3.64171 2.95508ZM12.3583 13.0449C11.1896 14.0554 9.6662 14.6667 8 14.6667C4.3181 14.6667 1.33333 11.6819 1.33333 8C1.33333 6.57591 1.77986 5.25611 2.54053 4.17296L4.66667 8H2.66667C2.66667 10.9455 5.05448 13.3333 8 13.3333C9.43347 13.3333 10.7348 12.7678 11.6932 11.8477L12.3583 13.0449Z" fill="var(--fill-0, #4E5969)"/>
</g>
</svg>
