<svg preserveAspectRatio="none" width="100%" height="100%" overflow="visible" style="display: block;" viewBox="0 0 16 16" fill="none" xmlns="http://www.w3.org/2000/svg">
<g id="thumb-down-line">
<path id="Vector" d="M6.26678 10.6667H2C1.26362 10.6667 0.666667 10.0697 0.666667 9.33333V7.93047C0.666667 7.75627 0.700787 7.5838 0.767093 7.4228L2.83001 2.41283C2.93287 2.16303 3.17631 2 3.44646 2H14.6667C15.0349 2 15.3333 2.29848 15.3333 2.66667V9.33333C15.3333 9.70153 15.0349 10 14.6667 10H12.3455C12.1288 10 11.9257 10.1053 11.8008 10.2822L8.1652 15.4327C8.0702 15.5672 7.89113 15.6123 7.7438 15.5385L6.53442 14.9339C5.83332 14.5833 5.47125 13.7916 5.66463 13.032L6.26678 10.6667ZM11.3333 8.94167V3.33333H3.89293L2 7.93047V9.33333H6.26678C7.1366 9.33333 7.77347 10.1527 7.55893 10.9956L6.95673 13.3609C6.91807 13.5129 6.99047 13.6712 7.13073 13.7413L7.57147 13.9617L10.7115 9.51333C10.8781 9.27727 11.0911 9.0838 11.3333 8.94167ZM12.6667 8.66667H14V3.33333H12.6667V8.66667Z" fill="var(--fill-0, #4E5969)"/>
</g>
</svg>
