<svg preserveAspectRatio="none" width="100%" height="100%" overflow="visible" style="display: block;" viewBox="0 0 16 16" fill="none" xmlns="http://www.w3.org/2000/svg">
<g id="thumb-up-line">
<path id="Vector" d="M9.7332 5.33355H14C14.7364 5.33355 15.3333 5.93051 15.3333 6.66687V8.0698C15.3333 8.24393 15.2992 8.4164 15.2329 8.57747L13.17 13.5874C13.0671 13.8372 12.8237 14.0002 12.5535 14.0002H1.33333C0.965147 14.0002 0.666667 13.7017 0.666667 13.3335V6.66687C0.666667 6.29869 0.965147 6.00022 1.33333 6.00022H3.65456C3.87118 6.00022 4.07429 5.89497 4.19921 5.71801L7.8348 0.56757C7.9298 0.432991 8.10887 0.387985 8.2562 0.461655L9.4656 1.06634C10.1667 1.41689 10.5287 2.20861 10.3354 2.96823L9.7332 5.33355ZM4.66667 7.05853V12.6669H12.1071L14 8.0698V6.66687H9.7332C8.8634 6.66687 8.22653 5.84752 8.44107 5.00461L9.04327 2.63929C9.08193 2.48737 9.00953 2.32902 8.86927 2.25891L8.42853 2.03853L5.2885 6.48692C5.1219 6.72293 4.90894 6.9164 4.66667 7.05853ZM3.33333 7.33353H2V12.6669H3.33333V7.33353Z" fill="var(--fill-0, #4E5969)"/>
</g>
</svg>
