<svg width="40" height="40" viewBox="0 0 40 40" fill="none" xmlns="http://www.w3.org/2000/svg">
<rect width="40" height="40" rx="7.813" fill="#165DFF"/>
<g transform="translate(5.2 9.52)">
<path d="M8.54774 1.69566C9.29924 0.185714 11.1323 -0.429462 12.6425 0.321635C14.1529 1.07301 14.7688 2.90693 14.0175 4.41734L8.7206 15.0648L13.9227 15.8255L4.78895 22.1429C3.40166 23.1021 1.49952 22.7555 0.539931 21.3685C0.0979695 20.7294 -0.0639859 19.9812 0.0223528 19.266C0.0597635 18.9148 0.156632 18.5636 0.323134 18.2289L8.54774 1.69566Z" fill="white"/>
<path d="M8.54869 1.69356C9.28196 0.220714 11.0443 -0.400174 12.5321 0.267783C13.347 0.526647 14.0606 1.10094 14.4715 1.92696L22.3504 17.7639C23.1549 19.3814 22.496 21.3448 20.8788 22.1496C19.2611 22.9544 17.2968 22.2956 16.492 20.6779L11.2098 10.0588L11.201 10.0744L10.5438 8.75313C9.79045 7.23874 7.95176 6.62184 6.43736 7.37521C5.76588 7.70929 5.27134 8.25684 4.994 8.89474L4.97252 8.88204L8.54869 1.69356Z" fill="white"/>
</g>
<g transform="translate(22.48 7.77)">
<rect x="6.84422" y="9.58601" width="5.49408" height="14.8083" rx="2.74704" fill="white"/>
<path d="M4.78466 0C5.79133 4.62606 9.56932 4.78467 9.56932 4.78467C9.56932 4.78467 5.44795 5.57036 4.78466 9.56934C3.81689 5.46305 0 4.78467 0 4.78467C0 4.78467 3.60228 4.43291 4.78466 0Z" fill="white"/>
</g>
</svg>
