<svg preserveAspectRatio="none" width="100%" height="100%" overflow="visible" style="display: block;" viewBox="0 0 20.4 24" fill="none" xmlns="http://www.w3.org/2000/svg">
  <path d="M0 4C0 1.79086 1.79086 0 4 0H10.4C15.9229 0 20.4 4.47715 20.4 10V20C20.4 22.2091 18.6091 24 16.4 24H4C1.79086 24 0 22.2091 0 20V4Z" fill="#165DFF"/>
  <path d="M11.3999 0C15.2999 0 20.3999 4.5 20.3999 9H16.1999C13.5489 9 11.3999 6.85097 11.3999 4.2V0Z" fill="#0E42D2"/>
  <path d="M4.75 13H7.08333V18.25H4.75V13ZM12.9167 10.6667H15.25V18.25H12.9167V10.6667ZM8.83333 7.16667H11.1667V18.25H8.83333V7.16667Z" fill="white"/>
</svg>
