<svg preserveAspectRatio="none" width="100%" height="100%" overflow="visible" style="display: block;" viewBox="0 0 20 20" fill="none" xmlns="http://www.w3.org/2000/svg">
<g id="Icon">
<path id="Vector" d="M13.2535 2.58105C14.0323 2.58123 14.8516 3.20599 15.0544 3.96045L16.8391 10.5164C17.196 11.8146 16.3849 12.8773 15.0381 12.8773H10.6249V16.2505H12.4999C12.8414 16.2505 13.1247 16.534 13.1249 16.8755C13.1249 17.2172 12.8415 17.5005 12.4999 17.5005H7.49987C7.15833 17.5003 6.87487 17.2171 6.87487 16.8755C6.87507 16.5341 7.15845 16.2506 7.49987 16.2505H9.37487V12.8773H4.96081C3.6141 12.8772 2.80301 11.8145 3.15987 10.5164L4.94454 3.96045C5.14738 3.20588 5.96738 2.58105 6.74629 2.58105H13.2535Z" fill="var(--fill-0, #00B42A)"/>
<path id="Vector_2" d="M7.14531 9.39583C7.0121 9.39583 6.87255 9.32925 6.7774 9.19606C6.60613 8.95927 6.63783 8.6115 6.84082 8.41171L8.839 6.46564C9.02296 6.28805 9.25766 6.21406 9.47967 6.25845C9.70804 6.30285 9.90469 6.46562 10.0252 6.7024L10.6913 7.99732L12.5499 6.19186C12.7529 5.99207 13.051 6.02905 13.2223 6.26584C13.3935 6.50262 13.3618 6.8504 13.1589 7.05018L11.1607 8.99625C10.9767 9.17384 10.742 9.24784 10.52 9.20344C10.2916 9.15904 10.095 8.99627 9.97446 8.75949L9.30841 7.46457L7.4498 9.27003C7.36099 9.35143 7.25315 9.39583 7.14531 9.39583Z" fill="var(--fill-0, white)"/>
</g>
</svg>
