<svg preserveAspectRatio="none" width="100%" height="100%" overflow="visible" style="display: block;" viewBox="0 0 21 23" fill="none" xmlns="http://www.w3.org/2000/svg">
<g id="Frame 7">
<rect id="Rectangle 12" opacity="0.5" x="5" y="5.5" width="14" height="15" rx="2" fill="var(--fill-0, #78D6F8)"/>
<rect id="Rectangle 11" x="2" y="2.5" width="14" height="15" rx="2" fill="var(--fill-0, #0976FC)"/>
<path id="Union" d="M9 6.5C9.55228 6.5 10 6.94772 10 7.5V9H11.5C12.0523 9 12.5 9.44772 12.5 10C12.5 10.5523 12.0523 11 11.5 11H10V12.5C10 13.0523 9.55228 13.5 9 13.5C8.44772 13.5 8 13.0523 8 12.5V11H6.5C5.94772 11 5.5 10.5523 5.5 10C5.5 9.44772 5.94772 9 6.5 9H8V7.5C8 6.94772 8.44772 6.5 9 6.5Z" fill="var(--fill-0, #F2FBFF)"/>
</g>
</svg>
