<svg preserveAspectRatio="none" width="100%" height="100%" overflow="visible" style="display: block;" viewBox="0 0 16 16" fill="none" xmlns="http://www.w3.org/2000/svg">
<g id="Icon">
<path id="Vector" d="M8.01488 1.39297C8.64976 1.39303 9.204 1.74124 9.49608 2.25859C11.047 2.85748 12.1537 4.36565 12.1539 6.12187V6.65469C12.1539 6.92755 11.933 7.14838 11.6602 7.14844C11.3874 7.1483 11.1657 6.9275 11.1656 6.65469V6.12187C11.1654 4.71608 10.2307 3.51663 8.95232 3.11484C8.80144 3.07323 8.6496 3.04049 8.49608 3.02187H8.49456C7.98774 2.95855 7.50846 2.99404 7.06408 3.11797C5.78964 3.52188 4.86357 4.71526 4.8633 6.12187V7.87813C4.8633 8.1228 4.81235 8.40344 4.74221 8.65624C4.67196 8.90928 4.57087 9.1748 4.4469 9.3828L4.44611 9.3844L3.7469 10.5446L3.74768 10.5453C3.60203 10.7874 3.59506 11.0094 3.65706 11.1774C3.71926 11.3454 3.86959 11.5106 4.13596 11.6016C6.65294 12.4425 9.36896 12.4424 11.8859 11.6016H11.8875C12.1743 11.5067 12.3596 11.3522 12.4406 11.2133C12.506 11.1011 12.5254 10.9699 12.4164 10.7883C12.2763 10.5544 12.3514 10.2506 12.5852 10.1102C12.819 9.96984 13.1227 10.0461 13.2633 10.2797C13.5552 10.7662 13.544 11.2829 13.2946 11.711C13.0606 12.1123 12.6458 12.3917 12.1977 12.5398L12.1969 12.539C11.5436 12.7572 10.8776 12.921 10.2055 13.0344C9.8936 13.9463 9.0296 14.607 8.01488 14.607C7.38009 14.607 6.79402 14.3439 6.37736 13.9274C6.13165 13.6816 5.94066 13.3762 5.82424 13.0375C5.14898 12.9241 4.47977 12.7583 3.82346 12.539L3.8219 12.5383C3.30035 12.3617 2.9065 11.9957 2.73049 11.5203C2.55452 11.0445 2.61537 10.5095 2.90081 10.0351L3.59924 8.87504C3.66329 8.76696 3.73438 8.59208 3.78986 8.39216C3.84567 8.19112 3.87502 8.00384 3.87502 7.87813V6.12187C3.87527 4.35998 4.98013 2.85305 6.53362 2.25625C6.8261 1.73993 7.38069 1.39303 8.01488 1.39297ZM8.99296 13.182C8.34088 13.2307 7.68647 13.2311 7.03439 13.1828C7.04835 13.1982 7.06194 13.2142 7.07658 13.2289C7.31602 13.4681 7.65366 13.6187 8.01488 13.6187C8.40128 13.6187 8.74936 13.4486 8.99296 13.182Z" fill="var(--fill-0, #6B7380)"/>
<path id="Vector_2" d="M13.5275 6.81695C13.7212 6.62326 14.0354 6.62325 14.2291 6.81695C14.4228 7.01065 14.4228 7.32482 14.2291 7.51851L11.8424 9.90448C11.6486 10.0982 11.3345 10.0982 11.1408 9.90448L9.9744 8.73808C9.78072 8.54432 9.78072 8.23016 9.9744 8.03648C10.1681 7.84289 10.4823 7.84285 10.676 8.03648L11.4916 8.85208L13.5275 6.81695Z" fill="var(--fill-0, #6B7380)"/>
</g>
</svg>
