<svg preserveAspectRatio="none" width="100%" height="100%" overflow="visible" style="display: block;" viewBox="0 0 16 16" fill="none" xmlns="http://www.w3.org/2000/svg">
<g id="Icon">
<path id="Vector" fill-rule="evenodd" clip-rule="evenodd" d="M6.66666 2.5C6.36367 2.5 6.14043 2.66685 5.99747 3.02368C5.89478 3.28002 5.60372 3.40456 5.34739 3.30186C5.09106 3.19917 4.9665 2.90812 5.0692 2.65178C5.31963 2.02668 5.84715 1.5 6.66666 1.5H9.33328C10.1345 1.5 10.7122 2.00648 10.9708 2.65178C11.0734 2.90812 10.949 3.19917 10.6926 3.30186C10.4362 3.40456 10.1452 3.28002 10.0425 3.02368C9.9076 2.68705 9.65464 2.5 9.33328 2.5H6.66666ZM2.85166 4.83325H2.33338C2.05723 4.83325 1.83338 4.60939 1.83338 4.33325C1.83338 4.05711 2.05723 3.83325 2.33338 3.83325H13.6667C13.9429 3.83325 14.1667 4.05711 14.1667 4.33325C14.1667 4.60939 13.9429 4.83325 13.6667 4.83325H13.1483L12.0652 12.6313C11.9165 13.7025 11.0006 14.4999 9.9192 14.4999H6.08079C4.99935 14.4999 4.0835 13.7025 3.93473 12.6313L2.85166 4.83325ZM12.1387 4.83325L11.0747 12.4938C10.9946 13.0705 10.5015 13.4999 9.9192 13.4999H6.08079C5.49848 13.4999 5.00533 13.0705 4.92522 12.4938L3.86126 4.83325H12.1387ZM6.62139 6.50209C6.8964 6.47709 7.1396 6.67975 7.16461 6.95477L7.49794 10.6214C7.52294 10.8965 7.32026 11.1397 7.04526 11.1646C6.77025 11.1897 6.52705 10.987 6.50205 10.712L6.16871 7.0453C6.14371 6.77029 6.34638 6.52709 6.62139 6.50209ZM9.83128 7.0453C9.85632 6.77029 9.65368 6.52709 9.37864 6.50209C9.1036 6.47709 8.8604 6.67975 8.83544 6.95477L8.50208 10.6214C8.47712 10.8965 8.67976 11.1397 8.9548 11.1646C9.22976 11.1897 9.47296 10.987 9.498 10.712L9.83128 7.0453Z" fill="var(--fill-0, #6B7380)"/>
</g>
</svg>
