<svg preserveAspectRatio="none" width="100%" height="100%" overflow="visible" style="display: block;" viewBox="0 0 24 24" fill="none" xmlns="http://www.w3.org/2000/svg">
<g id="subscription-line">
<path id="Vector" fill-rule="evenodd" clip-rule="evenodd" d="M7 2C7.55228 2 8 2.44772 8 3V4H16V3C16 2.44772 16.4477 2 17 2C17.5523 2 18 2.44772 18 3V4H20C20.5523 4 21 4.44772 21 5V20C21 20.5523 20.5523 21 20 21H4C3.44772 21 3 20.5523 3 20V5C3 4.44772 3.44772 4 4 4H6V3C6 2.44772 6.44772 2 7 2ZM5 9V19H19V9H5ZM19 7V6H18V7H16V6H8V7H6V6H5V7H19ZM12 11C12.5523 11 13 11.4477 13 12V14.5858L14.7071 16.2929L13.2929 17.7071L11 15.4142V12C11 11.4477 11.4477 11 12 11ZM8.87868 12.8787C9.46447 12.2929 10.1838 11.9126 10.9385 11.7378L10.4884 9.78915C9.37937 10.0458 8.32104 10.6049 7.46447 11.4645C5.51184 13.4238 5.51184 16.5762 7.46447 18.5355L8.87868 17.1213C7.70711 15.9497 7.70711 14.0503 8.87868 12.8787ZM15.1213 17.1213C16.2929 15.9497 16.2929 14.0503 15.1213 12.8787L16.5355 11.4645C18.4882 13.4238 18.4882 16.5762 16.5355 18.5355C15.679 19.3951 14.6206 19.9542 13.5116 20.2109L13.0615 18.2622C13.8162 18.0874 14.5355 17.7071 15.1213 17.1213Z" fill="var(--fill-0, #51525A)"/>
</g>
</svg>
